<svg xmlns="http://www.w3.org/2000/svg" width="32" height="32" viewBox="0 0 32 32" fill="#55E8FF"><rect x="10" y="3" width="2" height="4"/><rect x="15" y="3" width="2" height="4"/><rect x="20" y="3" width="2" height="4"/><rect x="10" y="25" width="2" height="4"/><rect x="15" y="25" width="2" height="4"/><rect x="20" y="25" width="2" height="4"/><rect x="3" y="10" width="4" height="2"/><rect x="3" y="15" width="4" height="2"/><rect x="3" y="20" width="4" height="2"/><rect x="25" y="10" width="4" height="2"/><rect x="25" y="15" width="4" height="2"/><rect x="25" y="20" width="4" height="2"/><rect x="7" y="7" width="18" height="2.5"/><rect x="7" y="22.5" width="18" height="2.5"/><rect x="7" y="7" width="2.5" height="18"/><rect x="22.5" y="7" width="2.5" height="18"/><rect x="13" y="13" width="6" height="6"/></svg>
